<svg width="33" height="40" viewBox="0 0 33 40" fill="none" xmlns="http://www.w3.org/2000/svg">
<path d="M24.7144 20.0009C24.712 16.9731 25.3984 13.9845 26.7216 11.2611C28.0447 8.5378 29.9701 6.15113 32.3518 4.28174C29.4019 1.96343 25.8593 0.521806 22.1288 0.12164C18.3983 -0.278525 14.6305 0.37891 11.256 2.01881C7.88153 3.6587 5.03647 6.2149 3.04601 9.39524C1.05555 12.5756 0 16.2518 0 20.0036C0 23.7555 1.05555 27.4317 3.04601 30.612C5.03647 33.7924 7.88153 36.3486 11.256 37.9885C14.6305 39.6284 18.3983 40.2858 22.1288 39.8856C25.8593 39.4855 29.4019 38.0439 32.3518 35.7255C29.9693 33.8556 28.0436 31.468 26.7204 28.7437C25.3972 26.0193 24.7112 23.0296 24.7144 20.0009Z" fill="#F24E1E"/>
</svg>
