<svg width="33" height="40" viewBox="0 0 33 40" fill="none" xmlns="http://www.w3.org/2000/svg">
<path d="M32.7066 20.0012C32.7065 23.7533 31.6507 27.4297 29.6599 30.6102C27.6691 33.7906 24.8236 36.3468 21.4486 37.9865C18.0737 39.6261 14.3055 40.2831 10.5748 39.8824C6.84416 39.4817 3.3015 38.0393 0.351807 35.7203C2.73261 33.8492 4.65738 31.4619 5.9809 28.7384C7.30443 26.0149 7.99213 23.0264 7.99213 19.9984C7.99213 16.9703 7.30443 13.9818 5.9809 11.2584C4.65738 8.53487 2.73261 6.14754 0.351807 4.27648C3.3015 1.95745 6.84416 0.515124 10.5748 0.114384C14.3055 -0.286356 18.0737 0.370656 21.4486 2.01032C24.8236 3.64998 27.6691 6.20613 29.6599 9.38659C31.6507 12.567 32.7065 16.2435 32.7066 19.9956V20.0012Z" fill="#FFD25F"/>
</svg>
